<?xml version="1.0" encoding="UTF-8"?>
<svg width="64" height="64" viewBox="0 0 64 64" fill="none" xmlns="http://www.w3.org/2000/svg">
  <rect width="64" height="64" rx="12" fill="#F8F9FD"/>
  
  <!-- Avatar base outline -->
  <circle cx="32" cy="22.5" r="8.75" fill="#5E60CE" opacity="0.8"/>
  <path d="M18.25 50C18.25 41.31 24.44 34.25 32 34.25C39.56 34.25 45.75 41.31 45.75 50" stroke="#5E60CE" stroke-width="2.5" stroke-linecap="round"/>
  
  <!-- Clothing outline -->
  <path fill-rule="evenodd" clip-rule="evenodd" d="M24.5 35.5C24.5 35.5 22 41.75 19.5 46.75C17 51.75 15.75 53 15.75 53H21.91C21.91 53 23.41 50 24.5 48C25.59 46 27 41 27 41L24.5 35.5Z" fill="#FF5E78" opacity="0.8"/>
  <path fill-rule="evenodd" clip-rule="evenodd" d="M39.5 35.5C39.5 35.5 42 41.75 44.5 46.75C47 51.75 48.25 53 48.25 53H42.09C42.09 53 40.59 50 39.5 48C38.41 46 37 41 37 41L39.5 35.5Z" fill="#FF5E78" opacity="0.8"/>
  
  <!-- Accessories -->
  <circle cx="32" cy="22.5" r="3.75" fill="#F8F9FD"/>
  <path d="M29.5 22.5C29.5 21.14 30.51 20 32 20C33.49 20 34.5 21.14 34.5 22.5" stroke="#5E60CE" stroke-width="0.75"/>
  <rect x="29.5" y="20" width="5" height="1.5" rx="0.75" fill="#5E60CE"/>
  <circle cx="28.25" cy="22.5" r="0.75" fill="#56E3D8"/>
  <circle cx="35.75" cy="22.5" r="0.75" fill="#56E3D8"/>
  
  <!-- Try-on indicator -->
  <path d="M43.25 15L46.38 18.13L49.5 15" stroke="#5E60CE" stroke-width="1" stroke-linecap="round" stroke-linejoin="round"/>
  <path d="M49.5 18.13L46.38 15L43.25 18.13" stroke="#5E60CE" stroke-width="1" stroke-linecap="round" stroke-linejoin="round"/>
</svg>